<?xml version="1.0" encoding="UTF-8"?>
<svg xmlns="http://www.w3.org/2000/svg" xmlns:xlink="http://www.w3.org/1999/xlink" width="100px" height="100px" viewBox="0 0 100 100" version="1.1">
<defs>
<clipPath id="clip1">
  <path d="M 4.105469 35 L 34.105469 35 L 34.105469 65 L 4.105469 65 Z M 4.105469 35 "/>
</clipPath>
<clipPath id="clip2">
  <path d="M 19.105469 35 C 10.820312 35 4.105469 41.714844 4.105469 50 C 4.105469 58.285156 10.820312 65 19.105469 65 C 27.386719 65 34.105469 58.285156 34.105469 50 C 34.105469 41.714844 27.386719 35 19.105469 35 Z M 19.105469 35 "/>
</clipPath>
</defs>
<g id="surface1">
<g clip-path="url(#clip1)" clip-rule="nonzero">
<g clip-path="url(#clip2)" clip-rule="nonzero">
<path style=" stroke:none;fill-rule:nonzero;fill:rgb(0%,36.078431%,27.058824%);fill-opacity:1;" d="M 4.105469 35 L 34.105469 35 L 34.105469 65 L 4.105469 65 Z M 4.105469 35 "/>
</g>
</g>
<path style=" stroke:none;fill-rule:nonzero;fill:rgb(0%,36.078431%,27.058824%);fill-opacity:1;" d="M 39.59375 55.238281 C 38.933594 55.238281 38.34375 55.15625 37.832031 54.996094 C 37.316406 54.832031 36.886719 54.617188 36.542969 54.355469 C 36.203125 54.085938 35.941406 53.796875 35.757812 53.480469 L 36.792969 52.214844 L 36.957031 52.214844 C 37.242188 52.640625 37.605469 52.980469 38.042969 53.234375 C 38.484375 53.484375 39.003906 53.609375 39.59375 53.609375 C 40.097656 53.609375 40.476562 53.503906 40.730469 53.292969 C 40.988281 53.078125 41.113281 52.785156 41.113281 52.414062 C 41.113281 52.183594 41.074219 51.996094 40.988281 51.847656 C 40.910156 51.695312 40.773438 51.5625 40.582031 51.453125 C 40.390625 51.347656 40.132812 51.253906 39.804688 51.175781 L 38.582031 50.894531 C 37.726562 50.699219 37.09375 50.375 36.671875 49.921875 C 36.253906 49.46875 36.042969 48.878906 36.042969 48.152344 C 36.042969 47.617188 36.179688 47.140625 36.449219 46.734375 C 36.71875 46.324219 37.109375 46.007812 37.625 45.785156 C 38.136719 45.558594 38.753906 45.445312 39.46875 45.445312 C 40.203125 45.445312 40.828125 45.542969 41.351562 45.738281 C 41.875 45.929688 42.316406 46.226562 42.675781 46.625 L 41.75 47.898438 L 41.585938 47.898438 C 41.316406 47.617188 41.007812 47.40625 40.660156 47.265625 C 40.3125 47.125 39.914062 47.054688 39.46875 47.054688 C 38.953125 47.054688 38.558594 47.144531 38.289062 47.328125 C 38.019531 47.511719 37.886719 47.761719 37.886719 48.082031 C 37.886719 48.382812 37.980469 48.621094 38.167969 48.800781 C 38.359375 48.976562 38.683594 49.117188 39.148438 49.210938 L 40.398438 49.476562 C 41.324219 49.667969 41.992188 50 42.410156 50.464844 C 42.828125 50.933594 43.035156 51.542969 43.035156 52.296875 C 43.035156 52.890625 42.90625 53.410156 42.652344 53.851562 C 42.394531 54.289062 42.011719 54.632812 41.492188 54.875 C 40.976562 55.117188 40.34375 55.238281 39.59375 55.238281 Z M 39.59375 55.238281 "/>
<path style=" stroke:none;fill-rule:nonzero;fill:rgb(0%,36.078431%,27.058824%);fill-opacity:1;" d="M 44.582031 55.101562 L 44.582031 45.035156 L 46.386719 45.035156 L 46.386719 48.859375 L 46.523438 48.882812 C 46.761719 48.53125 47.054688 48.261719 47.402344 48.070312 C 47.75 47.878906 48.167969 47.785156 48.660156 47.785156 C 50.246094 47.785156 51.035156 48.683594 51.035156 50.480469 L 51.035156 55.101562 L 49.230469 55.101562 L 49.230469 50.703125 C 49.230469 50.214844 49.132812 49.859375 48.9375 49.636719 C 48.742188 49.414062 48.4375 49.304688 48.027344 49.304688 C 47.523438 49.304688 47.125 49.472656 46.828125 49.8125 C 46.535156 50.148438 46.386719 50.671875 46.386719 51.382812 L 46.386719 55.101562 Z M 44.582031 55.101562 "/>
<path style=" stroke:none;fill-rule:nonzero;fill:rgb(0%,36.078431%,27.058824%);fill-opacity:1;" d="M 59.054688 51.917969 L 54.4375 51.917969 C 54.492188 52.542969 54.667969 52.996094 54.972656 53.285156 C 55.277344 53.566406 55.691406 53.707031 56.21875 53.707031 C 56.628906 53.707031 56.960938 53.632812 57.21875 53.480469 C 57.476562 53.324219 57.683594 53.089844 57.839844 52.773438 L 57.976562 52.773438 L 59.171875 53.546875 C 58.9375 54.050781 58.585938 54.457031 58.109375 54.769531 C 57.636719 55.082031 57.007812 55.238281 56.21875 55.238281 C 55.476562 55.238281 54.835938 55.097656 54.292969 54.816406 C 53.753906 54.535156 53.335938 54.113281 53.042969 53.554688 C 52.75 52.996094 52.605469 52.316406 52.605469 51.511719 C 52.605469 50.695312 52.757812 50.007812 53.066406 49.449219 C 53.375 48.890625 53.792969 48.472656 54.316406 48.195312 C 54.84375 47.921875 55.433594 47.785156 56.089844 47.785156 C 57.101562 47.785156 57.878906 48.054688 58.417969 48.589844 C 58.960938 49.128906 59.230469 49.917969 59.230469 50.957031 C 59.230469 51.335938 59.21875 51.628906 59.191406 51.835938 Z M 57.503906 50.75 C 57.488281 50.203125 57.359375 49.804688 57.125 49.558594 C 56.890625 49.308594 56.542969 49.183594 56.089844 49.183594 C 55.175781 49.183594 54.640625 49.707031 54.480469 50.75 Z M 57.503906 50.75 "/>
<path style=" stroke:none;fill-rule:nonzero;fill:rgb(0%,36.078431%,27.058824%);fill-opacity:1;" d="M 66.859375 51.917969 L 62.242188 51.917969 C 62.296875 52.542969 62.472656 52.996094 62.777344 53.285156 C 63.082031 53.566406 63.496094 53.707031 64.023438 53.707031 C 64.433594 53.707031 64.765625 53.632812 65.023438 53.480469 C 65.28125 53.324219 65.488281 53.089844 65.644531 52.773438 L 65.78125 52.773438 L 66.976562 53.546875 C 66.742188 54.050781 66.390625 54.457031 65.914062 54.769531 C 65.441406 55.082031 64.8125 55.238281 64.023438 55.238281 C 63.28125 55.238281 62.640625 55.097656 62.097656 54.816406 C 61.558594 54.535156 61.140625 54.113281 60.847656 53.554688 C 60.554688 52.996094 60.410156 52.316406 60.410156 51.511719 C 60.410156 50.695312 60.5625 50.007812 60.871094 49.449219 C 61.179688 48.890625 61.597656 48.472656 62.121094 48.195312 C 62.648438 47.921875 63.238281 47.785156 63.894531 47.785156 C 64.90625 47.785156 65.683594 48.054688 66.222656 48.589844 C 66.765625 49.128906 67.035156 49.917969 67.035156 50.957031 C 67.035156 51.335938 67.023438 51.628906 66.996094 51.835938 Z M 65.308594 50.75 C 65.292969 50.203125 65.164062 49.804688 64.929688 49.558594 C 64.695312 49.308594 64.347656 49.183594 63.894531 49.183594 C 62.980469 49.183594 62.445312 49.707031 62.285156 50.75 Z M 65.308594 50.75 "/>
<path style=" stroke:none;fill-rule:nonzero;fill:rgb(0%,36.078431%,27.058824%);fill-opacity:1;" d="M 72.523438 53.386719 L 72.992188 54.722656 C 72.796875 54.882812 72.550781 55.007812 72.257812 55.101562 C 71.960938 55.191406 71.625 55.238281 71.25 55.238281 C 70.476562 55.238281 69.886719 55.027344 69.480469 54.605469 C 69.078125 54.179688 68.875 53.5625 68.875 52.753906 L 68.875 49.347656 L 67.785156 49.347656 L 67.785156 47.914062 L 68.875 47.914062 L 68.875 46.511719 L 70.679688 46.222656 L 70.679688 47.914062 L 72.71875 47.914062 L 72.71875 49.347656 L 70.679688 49.347656 L 70.679688 52.625 C 70.679688 52.980469 70.753906 53.242188 70.902344 53.402344 C 71.046875 53.570312 71.265625 53.648438 71.546875 53.648438 C 71.867188 53.648438 72.144531 53.5625 72.386719 53.386719 Z M 72.523438 53.386719 "/>
<path style=" stroke:none;fill-rule:nonzero;fill:rgb(0%,36.078431%,27.058824%);fill-opacity:1;" d="M 76.503906 55.238281 C 76.015625 55.238281 75.566406 55.179688 75.160156 55.066406 C 74.75 54.949219 74.402344 54.792969 74.113281 54.589844 C 73.824219 54.390625 73.609375 54.15625 73.472656 53.894531 L 74.476562 52.816406 L 74.613281 52.816406 C 74.851562 53.136719 75.132812 53.378906 75.460938 53.539062 C 75.785156 53.699219 76.136719 53.777344 76.519531 53.777344 C 76.871094 53.777344 77.136719 53.714844 77.3125 53.589844 C 77.492188 53.464844 77.582031 53.285156 77.582031 53.050781 C 77.582031 52.867188 77.515625 52.714844 77.390625 52.589844 C 77.261719 52.464844 77.054688 52.371094 76.769531 52.300781 L 75.816406 52.070312 C 75.101562 51.902344 74.582031 51.644531 74.253906 51.296875 C 73.925781 50.945312 73.765625 50.503906 73.765625 49.960938 C 73.765625 49.515625 73.878906 49.128906 74.105469 48.800781 C 74.335938 48.46875 74.65625 48.21875 75.070312 48.046875 C 75.484375 47.871094 75.96875 47.785156 76.519531 47.785156 C 77.164062 47.785156 77.703125 47.878906 78.125 48.0625 C 78.550781 48.25 78.882812 48.5 79.121094 48.8125 L 78.160156 49.855469 L 78.03125 49.855469 C 77.832031 49.628906 77.605469 49.460938 77.355469 49.359375 C 77.105469 49.253906 76.828125 49.199219 76.519531 49.199219 C 75.804688 49.199219 75.453125 49.421875 75.453125 49.867188 C 75.453125 50.054688 75.515625 50.203125 75.648438 50.320312 C 75.78125 50.4375 76.015625 50.535156 76.351562 50.609375 L 77.234375 50.804688 C 77.964844 50.960938 78.5 51.210938 78.835938 51.554688 C 79.171875 51.898438 79.339844 52.363281 79.339844 52.945312 C 79.339844 53.402344 79.222656 53.804688 78.996094 54.148438 C 78.773438 54.496094 78.445312 54.765625 78.023438 54.953125 C 77.597656 55.144531 77.089844 55.238281 76.503906 55.238281 Z M 76.503906 55.238281 "/>
<path style=" stroke:none;fill-rule:nonzero;fill:rgb(100%,100%,100%);fill-opacity:1;" d="M 14.75 55.101562 L 12.871094 55.101562 L 12.871094 45.582031 L 14.75 45.582031 Z M 14.75 55.101562 "/>
<path style=" stroke:none;fill-rule:nonzero;fill:rgb(100%,100%,100%);fill-opacity:1;" d="M 23.5625 57.472656 C 22.722656 57.472656 22.027344 57.269531 21.476562 56.863281 C 20.921875 56.460938 20.550781 55.898438 20.359375 55.179688 C 19.632812 55.074219 19 54.828125 18.457031 54.441406 C 17.917969 54.054688 17.5 53.515625 17.195312 52.828125 C 16.894531 52.144531 16.746094 51.316406 16.746094 50.339844 C 16.746094 49.253906 16.933594 48.34375 17.3125 47.613281 C 17.691406 46.878906 18.210938 46.335938 18.875 45.980469 C 19.542969 45.625 20.3125 45.445312 21.183594 45.445312 C 22.054688 45.445312 22.824219 45.621094 23.488281 45.976562 C 24.15625 46.328125 24.675781 46.871094 25.050781 47.609375 C 25.425781 48.339844 25.613281 49.253906 25.613281 50.339844 C 25.613281 51.765625 25.308594 52.855469 24.695312 53.621094 C 24.089844 54.382812 23.230469 54.855469 22.128906 55.042969 L 22.097656 55.171875 C 22.230469 55.402344 22.433594 55.578125 22.699219 55.699219 C 22.96875 55.824219 23.277344 55.886719 23.632812 55.886719 C 23.917969 55.886719 24.175781 55.851562 24.410156 55.777344 L 24.539062 55.804688 L 24.804688 57.273438 C 24.664062 57.328125 24.476562 57.371094 24.242188 57.414062 C 24.007812 57.449219 23.78125 57.472656 23.5625 57.472656 Z M 21.183594 53.605469 C 21.992188 53.605469 22.609375 53.34375 23.035156 52.824219 C 23.457031 52.304688 23.671875 51.476562 23.671875 50.339844 C 23.671875 49.203125 23.457031 48.375 23.035156 47.855469 C 22.609375 47.332031 21.992188 47.070312 21.183594 47.070312 C 20.371094 47.070312 19.753906 47.332031 19.324219 47.855469 C 18.898438 48.375 18.683594 49.203125 18.683594 50.339844 C 18.683594 51.476562 18.898438 52.304688 19.324219 52.824219 C 19.753906 53.34375 20.371094 53.605469 21.183594 53.605469 Z M 21.183594 53.605469 "/>
</g>
</svg>
