<?xml version="1.0" encoding="UTF-8"?>
<svg xmlns="http://www.w3.org/2000/svg" xmlns:xlink="http://www.w3.org/1999/xlink" width="60px" height="60px" viewBox="0 0 60 60" version="1.1">
<defs>
<clipPath id="clip1">
  <path d="M 2.460938 21 L 20.460938 21 L 20.460938 39 L 2.460938 39 Z M 2.460938 21 "/>
</clipPath>
<clipPath id="clip2">
  <path d="M 11.460938 21 C 6.492188 21 2.460938 25.03125 2.460938 30 C 2.460938 34.96875 6.492188 39 11.460938 39 C 16.433594 39 20.460938 34.96875 20.460938 30 C 20.460938 25.03125 16.433594 21 11.460938 21 Z M 11.460938 21 "/>
</clipPath>
</defs>
<g id="surface1">
<g clip-path="url(#clip1)" clip-rule="nonzero">
<g clip-path="url(#clip2)" clip-rule="nonzero">
<path style=" stroke:none;fill-rule:nonzero;fill:rgb(0%,36.078431%,27.058824%);fill-opacity:1;" d="M 2.460938 21 L 20.460938 21 L 20.460938 39 L 2.460938 39 Z M 2.460938 21 "/>
</g>
</g>
<path style=" stroke:none;fill-rule:nonzero;fill:rgb(0%,36.078431%,27.058824%);fill-opacity:1;" d="M 23.757812 33.140625 C 23.359375 33.140625 23.007812 33.09375 22.699219 32.996094 C 22.390625 32.898438 22.132812 32.769531 21.925781 32.613281 C 21.722656 32.453125 21.5625 32.277344 21.453125 32.085938 L 22.078125 31.328125 L 22.175781 31.328125 C 22.34375 31.585938 22.5625 31.789062 22.828125 31.941406 C 23.089844 32.089844 23.402344 32.164062 23.757812 32.164062 C 24.058594 32.164062 24.285156 32.101562 24.4375 31.976562 C 24.59375 31.847656 24.667969 31.671875 24.667969 31.449219 C 24.667969 31.3125 24.644531 31.199219 24.59375 31.109375 C 24.546875 31.015625 24.464844 30.9375 24.347656 30.871094 C 24.234375 30.808594 24.078125 30.75 23.882812 30.703125 L 23.148438 30.539062 C 22.636719 30.417969 22.253906 30.222656 22.003906 29.953125 C 21.753906 29.679688 21.625 29.328125 21.625 28.890625 C 21.625 28.570312 21.707031 28.285156 21.867188 28.039062 C 22.03125 27.796875 22.265625 27.605469 22.574219 27.46875 C 22.882812 27.335938 23.25 27.265625 23.679688 27.265625 C 24.121094 27.265625 24.496094 27.328125 24.8125 27.441406 C 25.125 27.558594 25.390625 27.734375 25.605469 27.976562 L 25.050781 28.738281 L 24.953125 28.738281 C 24.789062 28.570312 24.605469 28.445312 24.394531 28.359375 C 24.1875 28.273438 23.949219 28.234375 23.679688 28.234375 C 23.371094 28.234375 23.136719 28.289062 22.972656 28.398438 C 22.8125 28.507812 22.730469 28.65625 22.730469 28.851562 C 22.730469 29.027344 22.789062 29.171875 22.902344 29.28125 C 23.015625 29.386719 23.210938 29.46875 23.488281 29.527344 L 24.238281 29.683594 C 24.792969 29.800781 25.195312 30 25.445312 30.28125 C 25.695312 30.558594 25.820312 30.925781 25.820312 31.378906 C 25.820312 31.734375 25.746094 32.046875 25.589844 32.308594 C 25.4375 32.574219 25.207031 32.777344 24.894531 32.925781 C 24.585938 33.070312 24.207031 33.140625 23.757812 33.140625 Z M 23.757812 33.140625 "/>
<path style=" stroke:none;fill-rule:nonzero;fill:rgb(0%,36.078431%,27.058824%);fill-opacity:1;" d="M 26.75 33.058594 L 26.75 27.019531 L 27.832031 27.019531 L 27.832031 29.316406 L 27.914062 29.328125 C 28.058594 29.117188 28.234375 28.957031 28.441406 28.84375 C 28.648438 28.726562 28.902344 28.671875 29.195312 28.671875 C 30.148438 28.671875 30.621094 29.210938 30.621094 30.289062 L 30.621094 33.058594 L 29.539062 33.058594 L 29.539062 30.421875 C 29.539062 30.128906 29.480469 29.917969 29.363281 29.78125 C 29.246094 29.648438 29.0625 29.582031 28.816406 29.582031 C 28.515625 29.582031 28.273438 29.683594 28.097656 29.886719 C 27.921875 30.089844 27.832031 30.402344 27.832031 30.828125 L 27.832031 33.058594 Z M 26.75 33.058594 "/>
<path style=" stroke:none;fill-rule:nonzero;fill:rgb(0%,36.078431%,27.058824%);fill-opacity:1;" d="M 35.433594 31.148438 L 32.664062 31.148438 C 32.695312 31.523438 32.800781 31.796875 32.984375 31.96875 C 33.167969 32.140625 33.414062 32.226562 33.730469 32.226562 C 33.976562 32.226562 34.175781 32.179688 34.332031 32.085938 C 34.484375 31.996094 34.609375 31.855469 34.703125 31.664062 L 34.785156 31.664062 L 35.503906 32.128906 C 35.363281 32.429688 35.152344 32.675781 34.867188 32.863281 C 34.582031 33.050781 34.203125 33.140625 33.730469 33.140625 C 33.285156 33.140625 32.902344 33.058594 32.574219 32.890625 C 32.25 32.71875 32 32.46875 31.824219 32.132812 C 31.652344 31.796875 31.5625 31.390625 31.5625 30.90625 C 31.5625 30.417969 31.65625 30.003906 31.839844 29.671875 C 32.027344 29.332031 32.277344 29.082031 32.589844 28.917969 C 32.90625 28.753906 33.257812 28.671875 33.652344 28.671875 C 34.261719 28.671875 34.726562 28.832031 35.050781 29.15625 C 35.375 29.476562 35.539062 29.949219 35.539062 30.574219 C 35.539062 30.800781 35.53125 30.976562 35.515625 31.101562 Z M 34.503906 30.449219 C 34.492188 30.121094 34.417969 29.882812 34.277344 29.734375 C 34.132812 29.585938 33.925781 29.511719 33.652344 29.511719 C 33.105469 29.511719 32.785156 29.824219 32.6875 30.449219 Z M 34.503906 30.449219 "/>
<path style=" stroke:none;fill-rule:nonzero;fill:rgb(0%,36.078431%,27.058824%);fill-opacity:1;" d="M 40.117188 31.148438 L 37.347656 31.148438 C 37.378906 31.523438 37.484375 31.796875 37.664062 31.96875 C 37.847656 32.140625 38.097656 32.226562 38.414062 32.226562 C 38.660156 32.226562 38.859375 32.179688 39.011719 32.085938 C 39.167969 31.996094 39.292969 31.855469 39.386719 31.664062 L 39.46875 31.664062 L 40.1875 32.128906 C 40.046875 32.429688 39.832031 32.675781 39.546875 32.863281 C 39.265625 33.050781 38.886719 33.140625 38.414062 33.140625 C 37.96875 33.140625 37.582031 33.058594 37.257812 32.890625 C 36.933594 32.71875 36.683594 32.46875 36.507812 32.132812 C 36.332031 31.796875 36.246094 31.390625 36.246094 30.90625 C 36.246094 30.417969 36.339844 30.003906 36.523438 29.671875 C 36.707031 29.332031 36.957031 29.082031 37.273438 28.917969 C 37.589844 28.753906 37.941406 28.671875 38.335938 28.671875 C 38.945312 28.671875 39.410156 28.832031 39.734375 29.15625 C 40.058594 29.476562 40.222656 29.949219 40.222656 30.574219 C 40.222656 30.800781 40.214844 30.976562 40.199219 31.101562 Z M 39.1875 30.449219 C 39.175781 30.121094 39.097656 29.882812 38.957031 29.734375 C 38.816406 29.585938 38.609375 29.511719 38.335938 29.511719 C 37.789062 29.511719 37.46875 29.824219 37.371094 30.449219 Z M 39.1875 30.449219 "/>
<path style=" stroke:none;fill-rule:nonzero;fill:rgb(0%,36.078431%,27.058824%);fill-opacity:1;" d="M 43.511719 32.03125 L 43.796875 32.832031 C 43.675781 32.929688 43.53125 33.003906 43.355469 33.058594 C 43.175781 33.113281 42.976562 33.140625 42.75 33.140625 C 42.285156 33.140625 41.933594 33.015625 41.6875 32.761719 C 41.445312 32.507812 41.324219 32.136719 41.324219 31.652344 L 41.324219 29.609375 L 40.671875 29.609375 L 40.671875 28.746094 L 41.324219 28.746094 L 41.324219 27.90625 L 42.410156 27.734375 L 42.410156 28.746094 L 43.632812 28.746094 L 43.632812 29.609375 L 42.410156 29.609375 L 42.410156 31.574219 C 42.410156 31.789062 42.453125 31.945312 42.542969 32.042969 C 42.628906 32.140625 42.757812 32.191406 42.929688 32.191406 C 43.121094 32.191406 43.289062 32.136719 43.429688 32.03125 Z M 43.511719 32.03125 "/>
<path style=" stroke:none;fill-rule:nonzero;fill:rgb(0%,36.078431%,27.058824%);fill-opacity:1;" d="M 45.902344 33.140625 C 45.609375 33.140625 45.339844 33.109375 45.097656 33.039062 C 44.851562 32.96875 44.640625 32.875 44.46875 32.753906 C 44.292969 32.632812 44.167969 32.496094 44.082031 32.335938 L 44.6875 31.691406 L 44.769531 31.691406 C 44.910156 31.882812 45.082031 32.027344 45.277344 32.121094 C 45.472656 32.21875 45.683594 32.265625 45.910156 32.265625 C 46.121094 32.265625 46.28125 32.230469 46.386719 32.15625 C 46.496094 32.078125 46.546875 31.96875 46.546875 31.828125 C 46.546875 31.71875 46.507812 31.628906 46.433594 31.554688 C 46.355469 31.480469 46.230469 31.421875 46.0625 31.378906 L 45.492188 31.242188 C 45.0625 31.140625 44.75 30.984375 44.554688 30.777344 C 44.355469 30.566406 44.257812 30.300781 44.257812 29.976562 C 44.257812 29.710938 44.328125 29.476562 44.464844 29.28125 C 44.601562 29.082031 44.792969 28.929688 45.042969 28.828125 C 45.292969 28.722656 45.582031 28.671875 45.910156 28.671875 C 46.300781 28.671875 46.621094 28.726562 46.875 28.835938 C 47.128906 28.949219 47.328125 29.097656 47.472656 29.289062 L 46.894531 29.914062 L 46.816406 29.914062 C 46.699219 29.777344 46.5625 29.675781 46.414062 29.613281 C 46.261719 29.550781 46.097656 29.519531 45.910156 29.519531 C 45.484375 29.519531 45.269531 29.652344 45.269531 29.921875 C 45.269531 30.03125 45.308594 30.121094 45.386719 30.191406 C 45.46875 30.261719 45.609375 30.320312 45.8125 30.363281 L 46.339844 30.484375 C 46.777344 30.578125 47.097656 30.726562 47.300781 30.933594 C 47.503906 31.140625 47.601562 31.417969 47.601562 31.765625 C 47.601562 32.042969 47.535156 32.28125 47.398438 32.488281 C 47.261719 32.699219 47.066406 32.859375 46.8125 32.972656 C 46.558594 33.085938 46.253906 33.140625 45.902344 33.140625 Z M 45.902344 33.140625 "/>
<path style=" stroke:none;fill-rule:nonzero;fill:rgb(100%,100%,100%);fill-opacity:1;" d="M 8.851562 33.058594 L 7.722656 33.058594 L 7.722656 27.351562 L 8.851562 27.351562 Z M 8.851562 33.058594 "/>
<path style=" stroke:none;fill-rule:nonzero;fill:rgb(100%,100%,100%);fill-opacity:1;" d="M 14.136719 34.484375 C 13.632812 34.484375 13.214844 34.359375 12.886719 34.117188 C 12.554688 33.875 12.332031 33.539062 12.214844 33.109375 C 11.78125 33.042969 11.398438 32.898438 11.074219 32.664062 C 10.75 32.433594 10.5 32.109375 10.316406 31.699219 C 10.136719 31.285156 10.046875 30.789062 10.046875 30.203125 C 10.046875 29.550781 10.160156 29.007812 10.386719 28.566406 C 10.613281 28.128906 10.925781 27.800781 11.324219 27.585938 C 11.726562 27.375 12.1875 27.265625 12.710938 27.265625 C 13.234375 27.265625 13.695312 27.375 14.09375 27.585938 C 14.492188 27.796875 14.804688 28.125 15.03125 28.566406 C 15.253906 29.003906 15.367188 29.550781 15.367188 30.203125 C 15.367188 31.058594 15.183594 31.714844 14.816406 32.171875 C 14.453125 32.628906 13.9375 32.914062 13.277344 33.023438 L 13.257812 33.101562 C 13.339844 33.242188 13.460938 33.347656 13.621094 33.421875 C 13.78125 33.496094 13.964844 33.53125 14.179688 33.53125 C 14.351562 33.53125 14.507812 33.511719 14.644531 33.46875 L 14.722656 33.484375 L 14.882812 34.363281 C 14.800781 34.394531 14.6875 34.421875 14.546875 34.449219 C 14.40625 34.46875 14.269531 34.484375 14.136719 34.484375 Z M 12.710938 32.164062 C 13.195312 32.164062 13.566406 32.007812 13.820312 31.695312 C 14.074219 31.382812 14.203125 30.886719 14.203125 30.203125 C 14.203125 29.523438 14.074219 29.023438 13.820312 28.710938 C 13.566406 28.398438 13.195312 28.242188 12.710938 28.242188 C 12.222656 28.242188 11.851562 28.398438 11.59375 28.710938 C 11.339844 29.023438 11.210938 29.523438 11.210938 30.203125 C 11.210938 30.886719 11.339844 31.382812 11.59375 31.695312 C 11.851562 32.007812 12.222656 32.164062 12.710938 32.164062 Z M 12.710938 32.164062 "/>
</g>
</svg>
