<svg xmlns="http://www.w3.org/2000/svg" xmlns:xlink="http://www.w3.org/1999/xlink" width="500" zoomAndPan="magnify" viewBox="0 0 375 374.999991" height="500" preserveAspectRatio="xMidYMid meet" version="1.0"><defs><g/><clipPath id="9fc5272ed3"><path d="M 15.390625 131.25 L 127.890625 131.25 L 127.890625 243.75 L 15.390625 243.75 Z M 15.390625 131.25 " clip-rule="nonzero"/></clipPath><clipPath id="8c33936192"><path d="M 71.640625 131.25 C 40.574219 131.25 15.390625 156.433594 15.390625 187.5 C 15.390625 218.566406 40.574219 243.75 71.640625 243.75 C 102.707031 243.75 127.890625 218.566406 127.890625 187.5 C 127.890625 156.433594 102.707031 131.25 71.640625 131.25 Z M 71.640625 131.25 " clip-rule="nonzero"/></clipPath></defs><g clip-path="url(#9fc5272ed3)"><g clip-path="url(#8c33936192)"><path fill="#005c45" d="M 15.390625 131.25 L 127.890625 131.25 L 127.890625 243.75 L 15.390625 243.75 Z M 15.390625 131.25 " fill-opacity="1" fill-rule="nonzero"/></g></g><g fill="#005c45" fill-opacity="1"><g transform="translate(132.649258, 206.624962)"><g><path d="M 15.828125 0.515625 C 13.347656 0.515625 11.144531 0.210938 9.21875 -0.390625 C 7.289062 -1.003906 5.679688 -1.804688 4.390625 -2.796875 C 3.109375 -3.796875 2.125 -4.890625 1.4375 -6.078125 L 5.328125 -10.8125 L 5.9375 -10.8125 C 7.007812 -9.21875 8.367188 -7.945312 10.015625 -7 C 11.671875 -6.0625 13.609375 -5.59375 15.828125 -5.59375 C 17.710938 -5.59375 19.132812 -5.988281 20.09375 -6.78125 C 21.050781 -7.582031 21.53125 -8.679688 21.53125 -10.078125 C 21.53125 -10.929688 21.375 -11.640625 21.0625 -12.203125 C 20.757812 -12.773438 20.25 -13.265625 19.53125 -13.671875 C 18.8125 -14.078125 17.84375 -14.425781 16.625 -14.71875 L 12.03125 -15.765625 C 8.832031 -16.503906 6.445312 -17.722656 4.875 -19.421875 C 3.300781 -21.117188 2.515625 -23.328125 2.515625 -26.046875 C 2.515625 -28.066406 3.019531 -29.84375 4.03125 -31.375 C 5.039062 -32.90625 6.507812 -34.09375 8.4375 -34.9375 C 10.363281 -35.78125 12.671875 -36.203125 15.359375 -36.203125 C 18.109375 -36.203125 20.460938 -35.835938 22.421875 -35.109375 C 24.378906 -34.390625 26.035156 -33.28125 27.390625 -31.78125 L 23.90625 -27 L 23.296875 -27 C 22.285156 -28.0625 21.128906 -28.851562 19.828125 -29.375 C 18.523438 -29.90625 17.035156 -30.171875 15.359375 -30.171875 C 13.421875 -30.171875 11.945312 -29.828125 10.9375 -29.140625 C 9.925781 -28.460938 9.421875 -27.519531 9.421875 -26.3125 C 9.421875 -25.195312 9.773438 -24.300781 10.484375 -23.625 C 11.191406 -22.957031 12.414062 -22.441406 14.15625 -22.078125 L 18.84375 -21.09375 C 22.3125 -20.363281 24.828125 -19.125 26.390625 -17.375 C 27.953125 -15.625 28.734375 -13.335938 28.734375 -10.515625 C 28.734375 -8.285156 28.253906 -6.34375 27.296875 -4.6875 C 26.335938 -3.039062 24.890625 -1.757812 22.953125 -0.84375 C 21.015625 0.0625 18.640625 0.515625 15.828125 0.515625 Z M 15.828125 0.515625 "/></g></g></g><g fill="#005c45" fill-opacity="1"><g transform="translate(163.308497, 206.624962)"><g><path d="M 3.875 0 L 3.875 -37.75 L 10.640625 -37.75 L 10.640625 -23.40625 L 11.15625 -23.3125 C 12.050781 -24.632812 13.148438 -25.648438 14.453125 -26.359375 C 15.753906 -27.078125 17.328125 -27.4375 19.171875 -27.4375 C 25.109375 -27.4375 28.078125 -24.066406 28.078125 -17.328125 L 28.078125 0 L 21.3125 0 L 21.3125 -16.484375 C 21.3125 -18.316406 20.941406 -19.648438 20.203125 -20.484375 C 19.472656 -21.316406 18.335938 -21.734375 16.796875 -21.734375 C 14.910156 -21.734375 13.410156 -21.097656 12.296875 -19.828125 C 11.191406 -18.566406 10.640625 -16.601562 10.640625 -13.9375 L 10.640625 0 Z M 3.875 0 "/></g></g></g><g fill="#005c45" fill-opacity="1"><g transform="translate(194.846503, 206.624962)"><g><path d="M 26.609375 -11.9375 L 9.296875 -11.9375 C 9.492188 -9.59375 10.160156 -7.882812 11.296875 -6.8125 C 12.441406 -5.75 14 -5.21875 15.96875 -5.21875 C 17.507812 -5.21875 18.757812 -5.503906 19.71875 -6.078125 C 20.6875 -6.660156 21.460938 -7.539062 22.046875 -8.71875 L 22.5625 -8.71875 L 27.046875 -5.828125 C 26.171875 -3.941406 24.84375 -2.410156 23.0625 -1.234375 C 21.289062 -0.0664062 18.925781 0.515625 15.96875 0.515625 C 13.1875 0.515625 10.78125 -0.0078125 8.75 -1.0625 C 6.726562 -2.125 5.164062 -3.703125 4.0625 -5.796875 C 2.96875 -7.890625 2.421875 -10.441406 2.421875 -13.453125 C 2.421875 -16.515625 3 -19.09375 4.15625 -21.1875 C 5.3125 -23.289062 6.875 -24.859375 8.84375 -25.890625 C 10.8125 -26.921875 13.023438 -27.4375 15.484375 -27.4375 C 19.285156 -27.4375 22.195312 -26.425781 24.21875 -24.40625 C 26.25 -22.394531 27.265625 -19.4375 27.265625 -15.53125 C 27.265625 -14.113281 27.21875 -13.015625 27.125 -12.234375 Z M 20.796875 -16.3125 C 20.734375 -18.363281 20.257812 -19.851562 19.375 -20.78125 C 18.488281 -21.71875 17.191406 -22.1875 15.484375 -22.1875 C 12.066406 -22.1875 10.054688 -20.226562 9.453125 -16.3125 Z M 20.796875 -16.3125 "/></g></g></g><g fill="#005c45" fill-opacity="1"><g transform="translate(224.114359, 206.624962)"><g><path d="M 26.609375 -11.9375 L 9.296875 -11.9375 C 9.492188 -9.59375 10.160156 -7.882812 11.296875 -6.8125 C 12.441406 -5.75 14 -5.21875 15.96875 -5.21875 C 17.507812 -5.21875 18.757812 -5.503906 19.71875 -6.078125 C 20.6875 -6.660156 21.460938 -7.539062 22.046875 -8.71875 L 22.5625 -8.71875 L 27.046875 -5.828125 C 26.171875 -3.941406 24.84375 -2.410156 23.0625 -1.234375 C 21.289062 -0.0664062 18.925781 0.515625 15.96875 0.515625 C 13.1875 0.515625 10.78125 -0.0078125 8.75 -1.0625 C 6.726562 -2.125 5.164062 -3.703125 4.0625 -5.796875 C 2.96875 -7.890625 2.421875 -10.441406 2.421875 -13.453125 C 2.421875 -16.515625 3 -19.09375 4.15625 -21.1875 C 5.3125 -23.289062 6.875 -24.859375 8.84375 -25.890625 C 10.8125 -26.921875 13.023438 -27.4375 15.484375 -27.4375 C 19.285156 -27.4375 22.195312 -26.425781 24.21875 -24.40625 C 26.25 -22.394531 27.265625 -19.4375 27.265625 -15.53125 C 27.265625 -14.113281 27.21875 -13.015625 27.125 -12.234375 Z M 20.796875 -16.3125 C 20.734375 -18.363281 20.257812 -19.851562 19.375 -20.78125 C 18.488281 -21.71875 17.191406 -22.1875 15.484375 -22.1875 C 12.066406 -22.1875 10.054688 -20.226562 9.453125 -16.3125 Z M 20.796875 -16.3125 "/></g></g></g><g fill="#005c45" fill-opacity="1"><g transform="translate(253.382215, 206.624962)"><g><path d="M 18.578125 -6.421875 L 20.34375 -1.421875 C 19.601562 -0.816406 18.679688 -0.34375 17.578125 0 C 16.472656 0.34375 15.21875 0.515625 13.8125 0.515625 C 10.90625 0.515625 8.691406 -0.273438 7.171875 -1.859375 C 5.660156 -3.453125 4.90625 -5.765625 4.90625 -8.796875 L 4.90625 -21.578125 L 0.8125 -21.578125 L 0.8125 -26.953125 L 4.90625 -26.953125 L 4.90625 -32.203125 L 11.671875 -33.296875 L 11.671875 -26.953125 L 19.3125 -26.953125 L 19.3125 -21.578125 L 11.671875 -21.578125 L 11.671875 -9.28125 C 11.671875 -7.945312 11.945312 -6.972656 12.5 -6.359375 C 13.050781 -5.742188 13.859375 -5.4375 14.921875 -5.4375 C 16.117188 -5.4375 17.164062 -5.765625 18.0625 -6.421875 Z M 18.578125 -6.421875 "/></g></g></g><g fill="#005c45" fill-opacity="1"><g transform="translate(274.301775, 206.624962)"><g><path d="M 12.59375 0.515625 C 10.757812 0.515625 9.078125 0.300781 7.546875 -0.125 C 6.015625 -0.5625 4.707031 -1.15625 3.625 -1.90625 C 2.539062 -2.664062 1.738281 -3.535156 1.21875 -4.515625 L 4.984375 -8.5625 L 5.5 -8.5625 C 6.394531 -7.363281 7.453125 -6.460938 8.671875 -5.859375 C 9.890625 -5.253906 11.210938 -4.953125 12.640625 -4.953125 C 13.960938 -4.953125 14.957031 -5.1875 15.625 -5.65625 C 16.289062 -6.132812 16.625 -6.8125 16.625 -7.6875 C 16.625 -8.375 16.382812 -8.945312 15.90625 -9.40625 C 15.425781 -9.875 14.648438 -10.238281 13.578125 -10.5 L 10.015625 -11.359375 C 7.335938 -11.992188 5.382812 -12.960938 4.15625 -14.265625 C 2.925781 -15.578125 2.3125 -17.242188 2.3125 -19.265625 C 2.3125 -20.941406 2.738281 -22.394531 3.59375 -23.625 C 4.457031 -24.863281 5.664062 -25.804688 7.21875 -26.453125 C 8.769531 -27.109375 10.578125 -27.4375 12.640625 -27.4375 C 15.066406 -27.4375 17.078125 -27.085938 18.671875 -26.390625 C 20.265625 -25.691406 21.507812 -24.753906 22.40625 -23.578125 L 18.796875 -19.671875 L 18.3125 -19.671875 C 17.5625 -20.523438 16.71875 -21.144531 15.78125 -21.53125 C 14.84375 -21.925781 13.796875 -22.125 12.640625 -22.125 C 9.972656 -22.125 8.640625 -21.289062 8.640625 -19.625 C 8.640625 -18.925781 8.882812 -18.359375 9.375 -17.921875 C 9.875 -17.484375 10.753906 -17.125 12.015625 -16.84375 L 15.328125 -16.109375 C 18.066406 -15.523438 20.066406 -14.585938 21.328125 -13.296875 C 22.585938 -12.003906 23.21875 -10.265625 23.21875 -8.078125 C 23.21875 -6.367188 22.789062 -4.863281 21.9375 -3.5625 C 21.09375 -2.257812 19.875 -1.253906 18.28125 -0.546875 C 16.6875 0.160156 14.789062 0.515625 12.59375 0.515625 Z M 12.59375 0.515625 "/></g></g></g><g fill="#ffffff" fill-opacity="1"><g transform="translate(43.631877, 206.624958)"><g><path d="M 11.6875 0 L 4.640625 0 L 4.640625 -35.6875 L 11.6875 -35.6875 Z M 11.6875 0 "/></g></g></g><g fill="#ffffff" fill-opacity="1"><g transform="translate(59.986742, 206.624958)"><g><path d="M 28.375 8.890625 C 25.226562 8.890625 22.617188 8.128906 20.546875 6.609375 C 18.472656 5.097656 17.078125 2.992188 16.359375 0.296875 C 13.640625 -0.0976562 11.265625 -1.019531 9.234375 -2.46875 C 7.210938 -3.925781 5.632812 -5.941406 4.5 -8.515625 C 3.375 -11.085938 2.8125 -14.195312 2.8125 -17.84375 C 2.8125 -21.925781 3.519531 -25.335938 4.9375 -28.078125 C 6.351562 -30.828125 8.304688 -32.867188 10.796875 -34.203125 C 13.296875 -35.535156 16.179688 -36.203125 19.453125 -36.203125 C 22.722656 -36.203125 25.601562 -35.539062 28.09375 -34.21875 C 30.59375 -32.894531 32.546875 -30.851562 33.953125 -28.09375 C 35.359375 -25.34375 36.0625 -21.925781 36.0625 -17.84375 C 36.0625 -12.507812 34.914062 -8.410156 32.625 -5.546875 C 30.34375 -2.691406 27.132812 -0.914062 23 -0.21875 L 22.875 0.265625 C 23.382812 1.128906 24.140625 1.789062 25.140625 2.25 C 26.140625 2.71875 27.304688 2.953125 28.640625 2.953125 C 29.710938 2.953125 30.679688 2.816406 31.546875 2.546875 L 32.03125 2.640625 L 33.03125 8.15625 C 32.507812 8.351562 31.804688 8.523438 30.921875 8.671875 C 30.046875 8.816406 29.195312 8.890625 28.375 8.890625 Z M 19.453125 -5.609375 C 22.484375 -5.609375 24.796875 -6.582031 26.390625 -8.53125 C 27.984375 -10.476562 28.78125 -13.582031 28.78125 -17.84375 C 28.78125 -22.113281 27.984375 -25.222656 26.390625 -27.171875 C 24.796875 -29.128906 22.484375 -30.109375 19.453125 -30.109375 C 16.410156 -30.109375 14.085938 -29.128906 12.484375 -27.171875 C 10.878906 -25.222656 10.078125 -22.113281 10.078125 -17.84375 C 10.078125 -13.582031 10.878906 -10.476562 12.484375 -8.53125 C 14.085938 -6.582031 16.410156 -5.609375 19.453125 -5.609375 Z M 19.453125 -5.609375 "/></g></g></g></svg>